<?xml version="1.0" encoding="utf-8"?>
<!-- Bicycle icon by Arthur Shlain from Usefulicons.com -->
<svg xmlns="http://www.w3.org/2000/svg" xml:space="preserve" version="1.1"
     x="0px" y="0px" viewBox="0 0 100 100" width="400px" height="400px"><path d="M77.5,45c-1.862,0-3.654,0.298-5.338,0.839L67.63,27.712c-0.181-0.723-0.44-1.424-0.771-2.083  C65.124,22.157,61.635,20,57.753,20H57.5c-1.381,0-2.5,1.119-2.5,2.5s1.119,2.5,2.5,2.5h0.253c1.976,0,3.751,1.097,4.635,2.866  c0.168,0.334,0.299,0.69,0.391,1.059l0.395,1.58l-24.434,8.885L36.545,35H40c1.381,0,2.5-1.119,2.5-2.5S41.381,30,40,30H27.5  c-1.381,0-2.5,1.119-2.5,2.5s1.119,2.5,2.5,2.5h3.455l3.618,7.236l-3.684,4.912C28.396,45.781,25.538,45,22.5,45  C12.851,45,5,52.851,5,62.5S12.851,80,22.5,80c8.798,0,16.081-6.534,17.3-15h0.637c1.033,2.908,3.804,5,7.063,5  c4.136,0,7.5-3.364,7.5-7.5c0-1.451-0.421-2.803-1.137-3.952l12.436-15.545l1.275,5.1C63.004,51.265,60,56.536,60,62.5  C60,72.149,67.851,80,77.5,80S95,72.149,95,62.5S87.149,45,77.5,45z M22.5,75C15.607,75,10,69.393,10,62.5S15.607,50,22.5,50  c1.912,0,3.717,0.444,5.339,1.215L20.5,61c-0.568,0.757-0.659,1.771-0.236,2.618C20.687,64.465,21.553,65,22.5,65h12.248  C33.587,70.699,28.537,75,22.5,75z M27.5,60l4.337-5.782c1.433,1.613,2.464,3.59,2.911,5.782H27.5z M40.437,60H39.8  c-0.549-3.814-2.314-7.241-4.914-9.849l2.187-2.916l5.033,10.066C41.371,58.064,40.799,58.982,40.437,60z M47.5,65  c-1.379,0-2.5-1.122-2.5-2.5s1.121-2.5,2.5-2.5s2.5,1.122,2.5,2.5S48.879,65,47.5,65z M49.96,55.423  C49.188,55.154,48.363,55,47.5,55c-0.313,0-0.62,0.025-0.923,0.063l-5.586-11.172l23.402-8.51l0.381,1.525L49.96,55.423z M77.5,75  C70.607,75,65,69.393,65,62.5c0-3.574,1.516-6.794,3.929-9.075c1.048,3.683,3.007,7.047,5.72,9.759l1.083,1.083  C76.221,64.756,76.86,65,77.5,65s1.279-0.244,1.768-0.732c0.977-0.976,0.977-2.559,0-3.535l-1.083-1.083  c-2.242-2.242-3.834-5.053-4.603-8.13l-0.202-0.807C74.672,50.259,76.055,50,77.5,50C84.393,50,90,55.607,90,62.5S84.393,75,77.5,75  z" stroke="none"></path></svg>