<?xml version="1.0" encoding="utf-8"?>
<!-- Kettlebell icon by Arthur Shlain from Usefulicons.com -->
<svg xmlns="http://www.w3.org/2000/svg" xml:space="preserve" version="1.1"
     x="0px" y="0px" viewBox="0 0 100 100" width="400px" height="400px"><path d="M84.937,62.867C84.46,54.828,81.204,47.48,76.128,41.778C78.551,38.47,80,34.406,80,30C80,18.972,71.028,10,60,10L40,10C28.972,10,20,18.972,20,30C20,34.392,21.44,38.444,23.849,41.747C18.347,47.93,15,56.073,15,65C15,73.972,18.38,82.152,23.932,88.345C24.879,89.402,26.239,90,27.659,90L72.341,90C73.765,90,75.126,89.398,76.076,88.338C82.06,81.657,85.518,72.668,84.937,62.867ZM50,40C38.875,40,28.983,47.477,25.944,58.183L21.134,56.818C24.78,43.972,36.65,35,50,35L50,40ZM31.52,35.275C30.563,33.741,30,31.937,30,30C30,24.486,34.486,20,40,20L60,20C65.514,20,70,24.486,70,30C70,31.948,69.431,33.763,68.464,35.302C63.753,32.352,58.305,30.487,52.477,30.086C44.759,29.554,37.531,31.529,31.52,35.275Z" stroke="none"></path></svg>