<?xml version="1.0" encoding="utf-8"?>
<!-- Smart Bathroom Scale icon by Arthur Shlain from Usefulicons.com -->
<svg xmlns="http://www.w3.org/2000/svg" xml:space="preserve" version="1.1"
     x="0px" y="0px" viewBox="0 0 100 100" width="400px" height="400px"><path d="M75,10L25,10C16.716,10,10,16.716,10,25L10,75C10,83.284,16.716,90,25,90L75,90C83.284,90,90,83.284,90,75L90,25C90,16.716,83.284,10,75,10ZM27.5,80C23.358,80,20,76.642,20,72.5S23.358,65,27.5,65S35,68.358,35,72.5S31.642,80,27.5,80ZM27.5,35C23.358,35,20,31.642,20,27.5S23.358,20,27.5,20S35,23.358,35,27.5S31.642,35,27.5,35ZM60,25L40,25L40,15L60,15L60,25ZM72.5,80C68.358,80,65,76.642,65,72.5S68.358,65,72.5,65S80,68.358,80,72.5S76.642,80,72.5,80ZM72.5,35C68.358,35,65,31.642,65,27.5S68.358,20,72.5,20S80,23.358,80,27.5S76.642,35,72.5,35Z" stroke="none"></path></svg>