<?xml version="1.0" encoding="utf-8"?>
<!-- Treadmill icon by Arthur Shlain from Usefulicons.com -->
<svg xmlns="http://www.w3.org/2000/svg" xml:space="preserve" version="1.1"
     x="0px" y="0px" viewBox="0 0 100 100" width="400px" height="400px"><path d="M89.822,78.116L82.704,40.831L89.268,34.267C90.245,33.29,90.245,31.708,89.268,30.732C88.292,29.755,86.708,29.755,85.733,30.732L70.733,45.732C69.756,46.709,69.756,48.291,70.733,49.267C71.22,49.756,71.86,50,72.5,50S73.78,49.756,74.268,49.268L78.43,45.106L83.069,69.405L14.229,80.06L14.23,80.078C11.837,80.45,10,82.502,10,85C10,87.761,12.239,90,15,90L80,90C85.523,90,90,85.523,90,80C90,79.355,89.918,78.731,89.801,78.12L89.822,78.116Z" stroke="none"></path>
    <path d="M45,17.5C45,13.356,48.356,10,52.5,10C56.644,10,60,13.356,60,17.5C60,21.644,56.644,25,52.5,25C48.356,25,45,21.644,45,17.5Z"
          stroke="none"></path>
    <path d="M16.813,57.404L25.563,59.904L34.313,62.404C34.884,62.565,35.482,62.51,36.004,62.281S36.97,61.65,37.236,61.118L39.728,56.134L42.22,51.15L46.506,54.007L50.792,56.864L55.671,62.962L60.55,69.06C61.514,70.265,62.951,70.171,63.932,69.454C64.914,68.737,65.44,67.398,64.582,66.111L59.582,58.611L54.582,51.111C54.536,51.043,54.487,50.976,54.435,50.913S54.328,50.788,54.269,50.73L50.323,46.784L46.377,42.838L48.403,38.786L50.429,34.734L52.966,38.116L55.5,41.5C55.898,42.03,56.469,42.359,57.078,42.463S58.335,42.447,58.887,42.08L62.637,39.58L66.387,37.08C66.961,36.697,67.326,36.118,67.452,35.49S67.464,34.187,67.081,33.613S66.118,32.674,65.491,32.548S64.188,32.536,63.614,32.919L60.848,34.763L58.082,36.607L55.041,32.553L52,28.5C51.856,28.308,51.667,28.127,51.457,27.976C51.247,27.825,51.017,27.703,50.791,27.628L47.041,26.378L43.291,25.128C43.096,25.063,42.877,25.023,42.656,25.009C42.435,24.995,42.213,25.008,42.01,25.049L35.76,26.299L29.51,27.549C29.036,27.644,28.611,27.871,28.275,28.191S27.692,28.925,27.575,29.394L26.325,34.394L25.075,39.394C24.685,40.953,25.702,42.041,26.914,42.346C28.126,42.652,29.534,42.175,29.925,40.607L30.983,36.375L32.041,32.143L35.403,31.471L38.765,30.799L36.946,36.255L35.127,41.711C35.106,41.773,35.088,41.836,35.072,41.899S35.043,42.026,35.032,42.091L33.983,48.386L32.934,54.681L25.393,53.604L17.852,52.527C16.359,52.307,15.373,53.319,15.123,54.49C14.875,55.66,15.361,56.989,16.813,57.404Z"
          stroke="none"></path></svg>