<?xml version="1.0" encoding="utf-8"?>
<!-- Weights Bench icon by Arthur Shlain from Usefulicons.com -->
<svg xmlns="http://www.w3.org/2000/svg" xml:space="preserve" version="1.1"
     x="0px" y="0px" viewBox="0 0 100 100" width="400px" height="400px"><path d="M20,50L20,60L15,60L15,55C15,52.239,17.239,50,20,50Z" stroke="none"></path>
    <path d="M45,65L50,65L50,80L55,80L55,85L40,85L40,80L45,80Z" stroke="none"></path>
    <path d="M25,39.749L25,80L20,80L20,85L35,85L35,80L30,80L30,60L74.923,60L79.922,80L75,80L75,85L90,85L90,80L85.077,80L80.078,60L90,60L90,55C90,52.239,87.761,50,85,50L50,50L50,39.749C50.808,39.913,51.644,40,52.5,40C59.404,40,65,34.404,65,27.5S59.404,15,52.5,15C46.453,15,41.409,19.295,40.251,25L34.749,25C33.591,19.295,28.547,15,22.5,15C15.596,15,10,20.596,10,27.5S15.596,40,22.5,40C23.356,40,24.192,39.913,25,39.749ZM25,27.5C25,28.881,23.881,30,22.5,30S20,28.881,20,27.5C20,26.119,21.119,25,22.5,25S25,26.119,25,27.5ZM55,27.5C55,26.119,53.881,25,52.5,25L45.438,25C46.471,22.092,49.243,20,52.5,20C56.635,20,60,23.365,60,27.5S56.635,35,52.5,35C51.622,35,50.783,34.841,50,34.562L50,30L52.5,30C53.881,30,55,28.881,55,27.5ZM30,37.483C32.396,35.68,34.13,33.047,34.749,30L40.251,30C40.87,33.047,42.604,35.68,45,37.483L45,50L30,50L30,37.483Z"
          stroke="none"></path></svg>